<svg width="512" height="512" viewBox="0 0 512 512" fill="none" xmlns="http://www.w3.org/2000/svg" role="img" aria-labelledby="title desc">
  <title id="title">Epic Eventz Mark</title>
  <desc id="desc">Epic Eventz metallic silver and purple EZ mark.</desc>
  <defs>
    <linearGradient id="silver" x1="60" x2="420" y1="92" y2="374" gradientUnits="userSpaceOnUse">
      <stop offset="0" stop-color="#cfcfcf"/>
      <stop offset="0.42" stop-color="#ffffff"/>
      <stop offset="0.74" stop-color="#8d8d8d"/>
      <stop offset="1" stop-color="#f2f2f2"/>
    </linearGradient>
    <linearGradient id="purple" x1="190" x2="390" y1="155" y2="310" gradientUnits="userSpaceOnUse">
      <stop offset="0" stop-color="#7621ff"/>
      <stop offset="0.5" stop-color="#e13aff"/>
      <stop offset="1" stop-color="#9c15ff"/>
    </linearGradient>
  </defs>
  <path d="M70 106L195 168L180 199L126 173L126 215L222 254L207 285L98 240L70 106Z" fill="url(#silver)"/>
  <path d="M448 106L322 184L307 220L422 173L422 215L300 254L286 286L420 239L448 106Z" fill="url(#silver)"/>
  <path d="M199 157H385L322 238H394L374 273H167L232 192H184L199 157Z" fill="url(#purple)"/>
  <ellipse cx="258" cy="343" rx="130" ry="17" fill="url(#purple)" opacity="0.96"/>
</svg>
